<svg width="36" height="36" viewBox="0 0 36 36" fill="none" xmlns="http://www.w3.org/2000/svg">
<path d="M18 6.5444C13.5 4.0979 4.5 1.8449 4.5 12.4154C4.5 20.6534 6.282 27.0494 9.0075 30.6269C9.975 31.8974 12.3315 31.5029 13.3395 30.2294C13.4511 30.0797 13.5391 29.9138 13.6005 29.7374L15.195 25.5374C16.176 22.9574 19.824 22.9574 20.805 25.5374L22.3995 29.7374C22.467 29.9114 22.545 30.0824 22.6605 30.2294C23.6685 31.5044 26.025 31.8974 26.9925 30.6269C29.718 27.0494 31.5 20.6549 31.5 12.4154C31.5 1.8464 22.5 4.0979 18 6.5444ZM18 6.5444L22.5 8.9999" stroke="white" stroke-width="3" stroke-linecap="round" stroke-linejoin="round"/>
</svg>
