<svg width="37" height="36" viewBox="0 0 37 36" fill="none" xmlns="http://www.w3.org/2000/svg">
<path d="M18.667 6.54452C14.167 4.09802 5.16699 1.84502 5.16699 12.4155C5.16699 20.6535 6.94899 27.0495 9.67449 30.627C10.642 31.8975 12.9985 31.503 14.0065 30.2295C14.1181 30.0798 14.2061 29.9139 14.2675 29.7375L15.862 25.5375C16.843 22.9575 20.491 22.9575 21.472 25.5375L23.0665 29.7375C23.134 29.9115 23.212 30.0825 23.3275 30.2295C24.3355 31.5045 26.692 31.8975 27.6595 30.627C30.385 27.0495 32.167 20.655 32.167 12.4155C32.167 1.84652 23.167 4.09802 18.667 6.54452ZM18.667 6.54452L23.167 9.00002" stroke="white" stroke-width="3" stroke-linecap="round" stroke-linejoin="round"/>
</svg>
