<svg width="20" height="21" viewBox="0 0 20 21" fill="none" xmlns="http://www.w3.org/2000/svg">
<path d="M18.3087 15.7751C18.3087 16.0751 18.242 16.3834 18.1003 16.6834C17.9587 16.9834 17.7753 17.2667 17.5337 17.5334C17.1253 17.9834 16.6753 18.3084 16.167 18.5167C15.667 18.7251 15.1253 18.8334 14.542 18.8334C13.692 18.8334 12.7837 18.6334 11.8253 18.2251C10.867 17.8167 9.90866 17.2667 8.95866 16.5751C8.00033 15.8751 7.09199 15.1001 6.22533 14.2417C5.36699 13.3751 4.59199 12.4667 3.90033 11.5167C3.21699 10.5667 2.66699 9.61675 2.26699 8.67508C1.86699 7.72508 1.66699 6.81675 1.66699 5.95008C1.66699 5.38341 1.76699 4.84175 1.96699 4.34175C2.16699 3.83341 2.48366 3.36675 2.92533 2.95008C3.45866 2.42508 4.04199 2.16675 4.65866 2.16675C4.89199 2.16675 5.12533 2.21675 5.33366 2.31675C5.55033 2.41675 5.74199 2.56675 5.89199 2.78341L7.82533 5.50841C7.97533 5.71675 8.08366 5.90841 8.15866 6.09175C8.23366 6.26675 8.27533 6.44175 8.27533 6.60008C8.27533 6.80008 8.21699 7.00008 8.10033 7.19175C7.99199 7.38341 7.83366 7.58341 7.63366 7.78341L7.00033 8.44175C6.90866 8.53341 6.86699 8.64175 6.86699 8.77508C6.86699 8.84175 6.87533 8.90008 6.89199 8.96675C6.91699 9.03341 6.94199 9.08341 6.95866 9.13341C7.10866 9.40841 7.36699 9.76675 7.73366 10.2001C8.10866 10.6334 8.50866 11.0751 8.94199 11.5167C9.39199 11.9584 9.82533 12.3667 10.267 12.7417C10.7003 13.1084 11.0587 13.3584 11.342 13.5084C11.3837 13.5251 11.4337 13.5501 11.492 13.5751C11.5587 13.6001 11.6253 13.6084 11.7003 13.6084C11.842 13.6084 11.9503 13.5584 12.042 13.4667L12.6753 12.8417C12.8837 12.6334 13.0837 12.4751 13.2753 12.3751C13.467 12.2584 13.6587 12.2001 13.867 12.2001C14.0253 12.2001 14.192 12.2334 14.3753 12.3084C14.5587 12.3834 14.7503 12.4917 14.9587 12.6334L17.717 14.5917C17.9337 14.7417 18.0837 14.9167 18.1753 15.1251C18.2587 15.3334 18.3087 15.5417 18.3087 15.7751Z" stroke="white" stroke-width="1.5" stroke-miterlimit="10"/>
</svg>
