<svg width="105" height="104" viewBox="0 0 105 104" fill="none" xmlns="http://www.w3.org/2000/svg">
<g filter="url(#filter0_b_27_2975)">
<path d="M12.333 52C12.333 29.9086 30.2416 12 52.333 12C74.4244 12 92.333 29.9086 92.333 52C92.333 74.0914 74.4244 92 52.333 92C30.2416 92 12.333 74.0914 12.333 52Z" fill="#6C7EC6"/>
<path d="M52.333 6C26.9279 6 6.33301 26.5949 6.33301 52C6.33301 77.4051 26.9279 98 52.333 98C77.7381 98 98.333 77.4051 98.333 52C98.333 26.5949 77.7381 6 52.333 6Z" stroke="#B6BFE2" stroke-width="12"/>
<g clip-path="url(#clip0_27_2975)">
<path fill-rule="evenodd" clip-rule="evenodd" d="M51.163 35.6583C51.8207 35.4122 52.5393 35.3802 53.2163 35.5667L53.503 35.6583L65.1697 40.0333C65.7612 40.2551 66.2776 40.6405 66.6585 41.1445C67.0394 41.6485 67.2693 42.2504 67.3213 42.88L67.333 43.155V52.0933C67.3329 54.794 66.6037 57.4446 65.2223 59.7653C63.841 62.086 61.8587 63.9907 59.4847 65.2783L59.0413 65.51L53.4513 68.305C53.1435 68.4587 52.8074 68.5472 52.4638 68.5649C52.1202 68.5827 51.7767 68.5294 51.4547 68.4083L51.2147 68.305L45.6247 65.51C43.209 64.3021 41.1643 62.4645 39.7063 60.191C38.2484 57.9175 37.4313 55.2926 37.3413 52.5933L37.333 52.0933V43.155C37.333 42.5235 37.5124 41.9051 37.8502 41.3716C38.1881 40.8381 38.6705 40.4116 39.2413 40.1417L39.4963 40.0333L51.163 35.6583ZM58.0547 46.3817L50.3913 54.045L47.4447 51.0983C47.1319 50.7858 46.7079 50.6103 46.2658 50.6105C45.8236 50.6106 45.3997 50.7864 45.0872 51.0992C44.7747 51.4119 44.5992 51.836 44.5993 52.2781C44.5995 52.7202 44.7753 53.1441 45.088 53.4567L49.0947 57.4633C49.2649 57.6337 49.4671 57.7688 49.6896 57.861C49.912 57.9532 50.1505 58.0006 50.3913 58.0006C50.6322 58.0006 50.8706 57.9532 51.0931 57.861C51.3156 57.7688 51.5178 57.6337 51.688 57.4633L60.4113 48.7383C60.5705 48.5846 60.6975 48.4007 60.7848 48.1973C60.8722 47.994 60.9182 47.7753 60.9201 47.554C60.922 47.3327 60.8798 47.1132 60.796 46.9084C60.7122 46.7036 60.5885 46.5175 60.432 46.361C60.2755 46.2045 60.0894 46.0808 59.8846 45.997C59.6798 45.9132 59.4603 45.871 59.239 45.8729C59.0177 45.8748 58.799 45.9208 58.5957 46.0082C58.3923 46.0955 58.2084 46.2225 58.0547 46.3817Z" fill="white"/>
</g>
</g>
<defs>
<filter id="filter0_b_27_2975" x="-9.66699" y="-10" width="124" height="124" filterUnits="userSpaceOnUse" color-interpolation-filters="sRGB">
<feFlood flood-opacity="0" result="BackgroundImageFix"/>
<feGaussianBlur in="BackgroundImageFix" stdDeviation="5"/>
<feComposite in2="SourceAlpha" operator="in" result="effect1_backgroundBlur_27_2975"/>
<feBlend mode="normal" in="SourceGraphic" in2="effect1_backgroundBlur_27_2975" result="shape"/>
</filter>
<clipPath id="clip0_27_2975">
<rect width="40" height="40" fill="white" transform="translate(32.333 32)"/>
</clipPath>
</defs>
</svg>
