<svg width="105" height="104" viewBox="0 0 105 104" fill="none" xmlns="http://www.w3.org/2000/svg">
<g filter="url(#filter0_b_27_2889)">
<path d="M12.333 52C12.333 29.9086 30.2416 12 52.333 12C74.4244 12 92.333 29.9086 92.333 52C92.333 74.0914 74.4244 92 52.333 92C30.2416 92 12.333 74.0914 12.333 52Z" fill="#6C7EC6"/>
<path d="M52.333 6C26.9279 6 6.33301 26.5949 6.33301 52C6.33301 77.4051 26.9279 98 52.333 98C77.7381 98 98.333 77.4051 98.333 52C98.333 26.5949 77.7381 6 52.333 6Z" stroke="#B6BFE2" stroke-width="12"/>
<path d="M52.3331 37.0262L64.8331 40.6V55.75C64.8331 59.8125 61.7756 62.6037 58.5856 64.4262C55.5106 66.1837 52.5518 66.92 52.3331 66.9737C52.1143 66.92 49.1456 66.185 46.0656 64.4262C42.8718 62.6037 39.8156 59.8162 39.8331 55.755V40.6037L52.3331 37.0312V37.0262ZM52.3081 43.2525C47.4756 43.2525 43.5831 47.1812 43.5831 52C43.5831 56.82 47.4756 60.75 52.3081 60.75C57.1406 60.75 61.0831 56.825 61.0831 52C61.0825 51.9171 61.0655 51.8351 61.0331 51.7587C60.8981 47.0537 57.0543 43.2525 52.3081 43.2525ZM52.3081 44.5025C56.4656 44.5025 59.8331 47.8562 59.8331 52C59.8331 56.145 56.4656 59.5 52.3081 59.5C51.3239 59.5015 50.3492 59.3083 49.44 58.9316C48.5308 58.555 47.705 58.0022 47.0103 57.3051C46.3155 56.608 45.7655 55.7805 45.3919 54.87C45.0182 53.9595 44.8283 52.9841 44.8331 52C44.8285 51.016 45.0185 50.0408 45.3922 49.1306C45.766 48.2203 46.316 47.393 47.0108 46.6961C47.7055 45.9993 48.5312 45.4467 49.4404 45.0703C50.3495 44.6938 51.3241 44.5008 52.3081 44.5025ZM49.2418 46.9875V47H49.2131V48.25H50.4968C51.6631 48.25 52.2531 48.8025 52.4643 49.4875H49.2418V50.7375H52.4643C52.2531 51.425 51.6643 51.9775 50.4968 51.9775H50.0968L50.0918 51.9737L50.0868 51.9775H49.2118V53.2275H49.5818L53.3943 56.9875L54.2743 56.1L51.2806 53.145C52.6368 52.8612 53.5068 51.8512 53.7468 50.7375H55.4531V49.4875H53.7468C53.6493 49.0375 53.4393 48.6125 53.1468 48.2375H55.4531V46.9875H49.2418Z" fill="white"/>
</g>
<defs>
<filter id="filter0_b_27_2889" x="-9.66699" y="-10" width="124" height="124" filterUnits="userSpaceOnUse" color-interpolation-filters="sRGB">
<feFlood flood-opacity="0" result="BackgroundImageFix"/>
<feGaussianBlur in="BackgroundImageFix" stdDeviation="5"/>
<feComposite in2="SourceAlpha" operator="in" result="effect1_backgroundBlur_27_2889"/>
<feBlend mode="normal" in="SourceGraphic" in2="effect1_backgroundBlur_27_2889" result="shape"/>
</filter>
</defs>
</svg>
