<svg width="105" height="104" viewBox="0 0 105 104" fill="none" xmlns="http://www.w3.org/2000/svg">
<g filter="url(#filter0_b_27_2905)">
<path d="M12.333 52C12.333 29.9086 30.2416 12 52.333 12C74.4244 12 92.333 29.9086 92.333 52C92.333 74.0914 74.4244 92 52.333 92C30.2416 92 12.333 74.0914 12.333 52Z" fill="#6C7EC6"/>
<path d="M52.333 6C26.9279 6 6.33301 26.5949 6.33301 52C6.33301 77.4051 26.9279 98 52.333 98C77.7381 98 98.333 77.4051 98.333 52C98.333 26.5949 77.7381 6 52.333 6Z" stroke="#B6BFE2" stroke-width="12"/>
<path d="M60.0057 34C58.594 34 57.2908 34.2608 56.0983 34.7272C55.3016 35.0387 54.4637 35.2443 53.6078 35.3384C53.2882 35.3736 53.0365 35.6273 53.0036 35.9475C52.9707 36.2676 53.1655 36.5673 53.4712 36.6669L57.0405 37.8291L58.3343 41.8106C58.4017 42.0184 58.5645 42.1813 58.772 42.2488L62.7495 43.5442L64.0434 47.5257C64.1109 47.7334 64.2736 47.8963 64.4812 47.9639L67.56 48.9664C67.8857 49.0726 68.2423 48.9202 68.3889 48.6064C68.6398 48.0695 68.9114 47.4941 69.196 46.8964C69.7342 45.7665 70.0047 44.5308 69.9999 43.2239C69.9817 38.1439 65.4984 34.0061 60.0057 34Z" fill="white"/>
<path d="M66.5302 50.9571L62.6495 49.652L61.3601 45.5535C61.2928 45.3396 61.1307 45.1719 60.9238 45.1024L56.9597 43.769L55.6704 39.6705C55.6031 39.4566 55.4409 39.2889 55.2341 39.2193L51.2702 37.8862L50.5575 35.6203C50.4847 35.389 50.3015 35.213 50.073 35.1549C49.6567 35.0492 49.2468 34.9153 48.8546 34.7569C42.3036 32.1111 35.0235 36.7303 35.0001 43.5032C34.9954 44.8487 35.265 46.1206 35.8012 47.2836C41.1519 58.8878 39.8243 57.7901 40.7363 63.4434L41.3681 67.3601C41.896 70.633 46.6495 70.958 47.6528 67.796L50.5381 58.7033C51.1308 56.8353 53.6834 56.8376 54.2754 58.7033L57.1607 67.7959C58.1652 70.9612 62.9178 70.6306 63.4454 67.3601L64.0773 63.4433C64.8487 58.6617 64.0213 58.7246 66.9415 51.9104C67.1046 51.5299 66.9136 51.0861 66.5302 50.9571ZM62.736 63.2122L62.1042 67.1289C61.8114 68.9437 59.0149 69.1284 58.4529 67.3577L55.5676 58.265C54.5671 55.1124 50.2488 55.1049 49.2461 58.265L46.3607 67.3578C45.7994 69.127 43.0026 68.9458 42.7095 67.1289L42.0777 63.2122C41.1697 57.5836 42.5002 58.5446 37.0288 46.6786C36.5811 45.7077 36.356 44.6411 36.36 43.5084C36.3801 37.7131 42.7074 33.7839 48.36 36.0667C48.6906 36.2002 49.032 36.3185 49.3789 36.4197L50.0841 38.6616C50.1514 38.8755 50.3136 39.0432 50.5204 39.1128L54.4843 40.4459L55.7736 44.5444C55.8409 44.7583 56.0031 44.926 56.2099 44.9955L60.174 46.3289L61.4634 50.4275C61.5307 50.6413 61.6929 50.809 61.8998 50.8786L65.3958 52.0544C62.7305 58.4059 63.4722 58.6482 62.736 63.2122Z" fill="white"/>
</g>
<defs>
<filter id="filter0_b_27_2905" x="-9.66699" y="-10" width="124" height="124" filterUnits="userSpaceOnUse" color-interpolation-filters="sRGB">
<feFlood flood-opacity="0" result="BackgroundImageFix"/>
<feGaussianBlur in="BackgroundImageFix" stdDeviation="5"/>
<feComposite in2="SourceAlpha" operator="in" result="effect1_backgroundBlur_27_2905"/>
<feBlend mode="normal" in="SourceGraphic" in2="effect1_backgroundBlur_27_2905" result="shape"/>
</filter>
</defs>
</svg>
