<svg width="105" height="104" viewBox="0 0 105 104" fill="none" xmlns="http://www.w3.org/2000/svg">
<g filter="url(#filter0_b_27_2980)">
<path d="M12.333 52C12.333 29.9086 30.2416 12 52.333 12C74.4244 12 92.333 29.9086 92.333 52C92.333 74.0914 74.4244 92 52.333 92C30.2416 92 12.333 74.0914 12.333 52Z" fill="#6C7EC6"/>
<path d="M52.333 6C26.9279 6 6.33301 26.5949 6.33301 52C6.33301 77.4051 26.9279 98 52.333 98C77.7381 98 98.333 77.4051 98.333 52C98.333 26.5949 77.7381 6 52.333 6Z" stroke="#B6BFE2" stroke-width="12"/>
<g clip-path="url(#clip0_27_2980)">
<path d="M44.208 67.6329H55.458C56.121 67.6329 56.7569 67.8963 57.2258 68.3651C57.6946 68.8339 57.958 69.4698 57.958 70.1329V71.3829H41.708V70.1329C41.708 69.4698 41.9714 68.8339 42.4402 68.3651C42.9091 67.8963 43.545 67.6329 44.208 67.6329Z" fill="white"/>
<path d="M51.708 67.6325H47.958L45.458 56.3825H54.208L51.708 67.6325Z" fill="white"/>
<path d="M48.0654 33.3494C48.5343 32.8805 49.1702 32.6171 49.8332 32.6171C50.4962 32.6171 51.1321 32.8805 51.601 33.3494C52.0698 33.8182 52.3332 34.4541 52.3332 35.1171C52.3332 35.7802 52.0698 36.416 51.601 36.8849L48.0654 33.3494Z" fill="white"/>
<path d="M54.1697 51.2549H43.3615C43.085 51.2549 42.816 51.1648 42.5952 50.9983C42.3745 50.8318 42.2139 50.5979 42.138 50.332L37.8213 35.2237C37.6745 34.7099 37.3643 34.2579 36.9377 33.9362C36.5112 33.6144 35.9913 33.4403 35.457 33.4403C35.0779 33.4403 34.704 33.5279 34.3644 33.6964C34.0248 33.8648 33.7287 34.1095 33.4994 34.4113C33.27 34.7131 33.1135 35.0638 33.0421 35.4361C32.9707 35.8084 32.9863 36.1921 33.0878 36.5574L38.0665 54.481C38.2154 55.0169 38.5358 55.4893 38.9786 55.8259C39.4214 56.1625 39.9624 56.3447 40.5186 56.3447H54.1697C54.8039 56.3447 55.4346 56.4396 56.0408 56.6261L68.5208 60.4661C68.8846 60.578 69.2696 60.603 69.6448 60.5391C70.02 60.4751 70.375 60.324 70.6812 60.0978C70.9874 59.8717 71.2362 59.5769 71.4077 59.237C71.5792 58.8972 71.6685 58.5219 71.6685 58.1412C71.6685 57.621 71.5017 57.1146 71.1927 56.6961C70.8836 56.2777 70.4486 55.9694 69.9514 55.8164L56.0408 51.5362C55.4346 51.3497 54.8039 51.2549 54.1697 51.2549Z" fill="white"/>
<path d="M70.1354 55.219L68.5827 54.7413V35.1421C68.5825 34.3134 68.2531 33.5186 67.6671 32.9326C67.0811 32.3466 66.2864 32.0173 65.4577 32.0171H65.4461L55.8715 32.0538C55.5597 32.0549 55.2486 32.0818 54.9413 32.1343L51.7325 32.6851C51.1347 32.2063 50.3815 31.9643 49.6166 32.0052C48.8518 32.0461 48.1287 32.3671 47.5854 32.907C47.5273 32.965 47.4813 33.0339 47.4498 33.1097C47.4184 33.1856 47.4023 33.2668 47.4023 33.3489C47.4023 33.431 47.4184 33.5122 47.4498 33.588C47.4813 33.6639 47.5273 33.7327 47.5854 33.7908L51.1205 37.3271C51.1785 37.3852 51.2474 37.4312 51.3232 37.4626C51.3991 37.4941 51.4803 37.5102 51.5624 37.5102C51.6445 37.5102 51.7257 37.4941 51.8015 37.4626C51.8774 37.4312 51.9462 37.3852 52.0043 37.3271C52.4555 36.8733 52.7563 36.2917 52.866 35.6612C52.9756 35.0307 52.8888 34.3817 52.6173 33.8021L55.1543 33.366C55.393 33.3251 55.6347 33.3043 55.8769 33.3037L65.4509 33.2671H65.4577C65.9549 33.2672 66.4317 33.4648 66.7833 33.8164C67.1349 34.168 67.3325 34.6448 67.3327 35.1421V54.3567L56.2249 50.9392C55.5592 50.7341 54.8665 50.63 54.1699 50.6304H49.8327V44.5073H52.9577C53.1234 44.5073 53.2824 44.4415 53.3996 44.3243C53.5168 44.2071 53.5827 44.0481 53.5827 43.8823C53.5827 43.7166 53.5168 43.5576 53.3996 43.4404C53.2824 43.3232 53.1234 43.2573 52.9577 43.2573H45.4577C45.2919 43.2573 45.1329 43.3232 45.0157 43.4404C44.8985 43.5576 44.8327 43.7166 44.8327 43.8823C44.8327 44.0481 44.8985 44.2071 45.0157 44.3243C45.1329 44.4415 45.2919 44.5073 45.4577 44.5073H48.5827V50.6304H43.3617C43.2211 50.63 43.0843 50.584 42.9721 50.4992C42.8598 50.4145 42.7781 50.2956 42.7392 50.1604L38.4227 35.0518C38.2365 34.4086 37.8468 33.8431 37.3122 33.4399C36.7775 33.0367 36.1267 32.8176 35.457 32.8154C34.9817 32.8155 34.5128 32.9254 34.0869 33.1366C33.6611 33.3479 33.2898 33.6546 33.0021 34.033C32.7144 34.4114 32.5181 34.8512 32.4284 35.318C32.3387 35.7849 32.3582 36.2661 32.4852 36.7241L37.4645 54.6477C37.6512 55.3146 38.0505 55.9023 38.6018 56.3213C39.1531 56.7404 39.8262 56.968 40.5187 56.9695H44.9477L47.1783 67.0073H44.2077C43.3791 67.0082 42.5848 67.3377 41.9989 67.9236C41.4131 68.5095 41.0835 69.3038 41.0827 70.1323V71.3823C41.0826 71.4644 41.0987 71.5457 41.1301 71.6216C41.1615 71.6974 41.2076 71.7664 41.2656 71.8244C41.3237 71.8824 41.3926 71.9285 41.4684 71.9599C41.5443 71.9913 41.6256 72.0074 41.7077 72.0074H57.9577C58.0398 72.0074 58.121 71.9913 58.1969 71.9599C58.2727 71.9285 58.3417 71.8824 58.3997 71.8244C58.4578 71.7664 58.5038 71.6974 58.5352 71.6216C58.5666 71.5457 58.5827 71.4644 58.5827 71.3823V70.1323C58.5818 69.3038 58.2523 68.5095 57.6664 67.9236C57.0805 67.3377 56.2862 67.0082 55.4577 67.0073H52.487L54.7087 57.0098C55.0979 57.0418 55.4828 57.1133 55.8574 57.2235L68.3367 61.0625C68.6314 61.1542 68.9381 61.2011 69.2467 61.2017C69.978 61.1987 70.6841 60.9339 71.237 60.4551C71.7898 59.9764 72.1529 59.3154 72.2604 58.592C72.3678 57.8686 72.2126 57.1306 71.8227 56.5119C71.4329 55.8931 70.8343 55.4344 70.1354 55.219ZM51.4873 35.9258L48.9867 33.4246C49.2726 33.2881 49.5884 33.2262 49.9047 33.2449C50.221 33.2635 50.5274 33.3619 50.7953 33.531C51.0633 33.7 51.284 33.9342 51.4369 34.2117C51.5898 34.4892 51.67 34.8009 51.6698 35.1177C51.6705 35.3973 51.6081 35.6736 51.4873 35.9258ZM57.3327 70.1323V70.7573H42.3327V70.1323C42.3332 69.6352 42.5309 69.1586 42.8824 68.8071C43.2339 68.4556 43.7105 68.2579 44.2077 68.2573H55.4577C55.9548 68.2579 56.4314 68.4556 56.7829 68.8071C57.1344 69.1586 57.3321 69.6352 57.3327 70.1323ZM51.2066 67.0073H48.4588L46.2371 57.0073H53.4282L51.2066 67.0073ZM70.3099 59.5952C70.083 59.7643 69.8192 59.8772 69.5402 59.9247C69.2612 59.9722 68.9749 59.953 68.7047 59.8687L56.2249 56.0296C55.5593 55.8238 54.8665 55.7193 54.1699 55.7196H40.5187C40.0993 55.7186 39.6918 55.5807 39.358 55.3269C39.0241 55.0731 38.7823 54.7172 38.6693 54.3133L33.6901 36.3897C33.6144 36.1173 33.6028 35.8311 33.656 35.5535C33.7093 35.2759 33.826 35.0143 33.9971 34.7893C34.1682 34.5643 34.389 34.3818 34.6422 34.2563C34.8955 34.1307 35.1744 34.0654 35.457 34.0654C35.8554 34.0666 36.2425 34.1969 36.5605 34.4368C36.8784 34.6768 37.11 35.0133 37.2204 35.396L41.5374 50.5047C41.6519 50.9004 41.8915 51.2483 42.2204 51.4963C42.5494 51.7444 42.9498 51.8791 43.3617 51.8804H54.1698C54.7418 51.8803 55.3106 51.9654 55.8574 52.1331L69.7673 56.4129C70.0872 56.5113 70.3734 56.6966 70.5942 56.948C70.8149 57.1995 70.9616 57.5072 71.0179 57.8371C71.0741 58.167 71.0377 58.506 70.9127 58.8164C70.7877 59.1268 70.5791 59.3964 70.3099 59.5952Z" fill="white"/>
</g>
</g>
<defs>
<filter id="filter0_b_27_2980" x="-9.66699" y="-10" width="124" height="124" filterUnits="userSpaceOnUse" color-interpolation-filters="sRGB">
<feFlood flood-opacity="0" result="BackgroundImageFix"/>
<feGaussianBlur in="BackgroundImageFix" stdDeviation="5"/>
<feComposite in2="SourceAlpha" operator="in" result="effect1_backgroundBlur_27_2980"/>
<feBlend mode="normal" in="SourceGraphic" in2="effect1_backgroundBlur_27_2980" result="shape"/>
</filter>
<clipPath id="clip0_27_2980">
<rect width="40" height="40" fill="white" transform="translate(32.333 32)"/>
</clipPath>
</defs>
</svg>
