<svg width="47" height="47" viewBox="0 0 47 47" fill="none" xmlns="http://www.w3.org/2000/svg">
<path opacity="0.1" fill-rule="evenodd" clip-rule="evenodd" d="M23.5 46C35.9264 46 46 35.9264 46 23.5C46 11.0736 35.9264 1 23.5 1C11.0736 1 1 11.0736 1 23.5C1 35.9264 11.0736 46 23.5 46Z" fill="#B6BFE2" stroke="#B6BFE2" stroke-width="1.5"/>
<path d="M30.875 15.75H15.125C14.429 15.7507 13.7618 16.0275 13.2697 16.5197C12.7775 17.0118 12.5007 17.679 12.5 18.375V29.625C12.5007 30.321 12.7775 30.9882 13.2697 31.4803C13.7618 31.9725 14.429 32.2493 15.125 32.25H30.875C31.571 32.2493 32.2382 31.9725 32.7303 31.4803C33.2225 30.9882 33.4993 30.321 33.5 29.625V18.375C33.4993 17.679 33.2225 17.0118 32.7303 16.5197C32.2382 16.0275 31.571 15.7507 30.875 15.75ZM30.2103 20.092L23.4603 25.342C23.3287 25.4444 23.1667 25.4999 23 25.4999C22.8333 25.4999 22.6713 25.4444 22.5397 25.342L15.7897 20.092C15.7104 20.0321 15.6438 19.9571 15.5937 19.8712C15.5437 19.7854 15.5112 19.6904 15.4981 19.5919C15.4851 19.4934 15.4918 19.3933 15.5178 19.2973C15.5438 19.2014 15.5886 19.1116 15.6496 19.0332C15.7106 18.9547 15.7866 18.8892 15.8731 18.8403C15.9597 18.7915 16.0551 18.7603 16.1538 18.7487C16.2525 18.737 16.3525 18.7451 16.448 18.7725C16.5436 18.7998 16.6327 18.8459 16.7103 18.908L23 23.7998L29.2897 18.908C29.447 18.7892 29.6447 18.7371 29.84 18.763C30.0354 18.7888 30.2128 18.8905 30.3338 19.0461C30.4547 19.2017 30.5096 19.3987 30.4865 19.5944C30.4634 19.7901 30.3642 19.9689 30.2103 20.092Z" fill="#394B93"/>
</svg>
