<svg width="24" height="24" viewBox="0 0 24 24" fill="none" xmlns="http://www.w3.org/2000/svg">
<g clip-path="url(#clip0_19_1465)">
<path d="M5.18265 20.9105V19.7192C5.18265 19.2624 4.90652 18.9646 4.43322 18.9646C4.19661 18.9646 3.94025 19.044 3.76275 19.3022C3.62477 19.0837 3.4276 18.9646 3.1318 18.9646C2.93454 18.9646 2.73746 19.0241 2.57963 19.2426V19.0043H2.16553V20.9105H2.57963V19.8581C2.57963 19.5206 2.75713 19.3617 3.03326 19.3617C3.30921 19.3617 3.44736 19.5404 3.44736 19.8581V20.9105H3.86147V19.8581C3.86147 19.5206 4.05855 19.3617 4.31492 19.3617C4.59105 19.3617 4.72902 19.5404 4.72902 19.8581V20.9105H5.18265ZM11.3153 19.0043H10.6449V18.4285H10.2308V19.0043H9.8561V19.3815H10.2307V20.2553C10.2307 20.6921 10.4082 20.9502 10.8815 20.9502C11.059 20.9502 11.2561 20.8907 11.3942 20.8113L11.2758 20.4538C11.1575 20.5332 11.0195 20.5531 10.9209 20.5531C10.7237 20.5531 10.6449 20.434 10.6449 20.2354V19.3815H11.3153V19.0043ZM14.8253 18.9645C14.5887 18.9645 14.431 19.0837 14.3324 19.2426V19.0043H13.9183V20.9105H14.3324V19.8383C14.3324 19.5206 14.4704 19.3419 14.7267 19.3419C14.8056 19.3419 14.9042 19.3618 14.9831 19.3816L15.1014 18.9845C15.0225 18.9646 14.9042 18.9646 14.8253 18.9646V18.9645ZM9.52086 19.1631C9.3236 19.0241 9.04756 18.9646 8.75176 18.9646C8.27855 18.9646 7.96308 19.2029 7.96308 19.5801C7.96308 19.8979 8.19968 20.0765 8.61379 20.1361L8.81096 20.156C9.02789 20.1957 9.14619 20.2553 9.14619 20.3546C9.14619 20.4935 8.98846 20.5928 8.71233 20.5928C8.43629 20.5928 8.21935 20.4935 8.08129 20.3943L7.88412 20.712C8.10105 20.8708 8.39685 20.9502 8.69256 20.9502C9.24473 20.9502 9.5603 20.6921 9.5603 20.3347C9.5603 19.9971 9.30393 19.8184 8.9095 19.7589L8.71233 19.739C8.53483 19.7191 8.39685 19.6794 8.39685 19.5603C8.39685 19.4213 8.53483 19.3419 8.75176 19.3419C8.98846 19.3419 9.22506 19.4411 9.34336 19.5007L9.52086 19.1631ZM20.5243 18.9646C20.2876 18.9646 20.1298 19.0837 20.0312 19.2426V19.0043H19.6171V20.9105H20.0312V19.8383C20.0312 19.5206 20.1693 19.3419 20.4255 19.3419C20.5045 19.3419 20.6031 19.3618 20.682 19.3816L20.8003 18.9845C20.7214 18.9646 20.6031 18.9646 20.5243 18.9646ZM15.2395 19.9574C15.2395 20.5332 15.6338 20.9502 16.2452 20.9502C16.5212 20.9502 16.7184 20.8907 16.9155 20.7319L16.7184 20.3943C16.5606 20.5134 16.4029 20.5729 16.2254 20.5729C15.8902 20.5729 15.6536 20.3347 15.6536 19.9574C15.6536 19.6 15.8902 19.3617 16.2254 19.3419C16.4029 19.3419 16.5606 19.4014 16.7184 19.5206L16.9155 19.183C16.7184 19.0241 16.5212 18.9646 16.2452 18.9646C15.6338 18.9646 15.2395 19.3816 15.2395 19.9574ZM19.065 19.9574V19.0043H18.6509V19.2426C18.5129 19.0639 18.3157 18.9646 18.0593 18.9646C17.5269 18.9646 17.1128 19.3816 17.1128 19.9574C17.1128 20.5332 17.5269 20.9502 18.0593 20.9502C18.3354 20.9502 18.5326 20.851 18.6509 20.6722V20.9105H19.065V19.9574ZM17.5466 19.9574C17.5466 19.6198 17.7635 19.3419 18.1184 19.3419C18.4537 19.3419 18.6904 19.6 18.6904 19.9574C18.6904 20.295 18.4537 20.5729 18.1184 20.5729C17.7635 20.553 17.5466 20.295 17.5466 19.9574ZM12.5971 18.9646C12.0449 18.9646 11.6505 19.3617 11.6505 19.9574C11.6505 20.5531 12.0448 20.9502 12.6168 20.9502C12.8928 20.9502 13.1689 20.8708 13.3859 20.6921L13.1886 20.3943C13.0309 20.5134 12.8337 20.5928 12.6365 20.5928C12.3802 20.5928 12.1238 20.4737 12.0646 20.136H13.4647V19.9773C13.4845 19.3617 13.1296 18.9646 12.5971 18.9646ZM12.5971 19.322C12.8534 19.322 13.031 19.4809 13.0703 19.7788H12.0844C12.1238 19.5206 12.3013 19.322 12.5971 19.322ZM22.8708 19.9574V18.2498H22.4567V19.2426C22.3187 19.0639 22.1215 18.9646 21.8651 18.9646C21.3327 18.9646 20.9186 19.3816 20.9186 19.9574C20.9186 20.5332 21.3327 20.9502 21.8651 20.9502C22.1413 20.9502 22.3384 20.851 22.4567 20.6722V20.9105H22.8708V19.9574ZM21.3525 19.9574C21.3525 19.6198 21.5693 19.3419 21.9243 19.3419C22.2596 19.3419 22.4962 19.6 22.4962 19.9574C22.4962 20.295 22.2596 20.5729 21.9243 20.5729C21.5693 20.553 21.3525 20.295 21.3525 19.9574ZM7.50945 19.9574V19.0043H7.09534V19.2426C6.95728 19.0639 6.76011 18.9646 6.50374 18.9646C5.97133 18.9646 5.55723 19.3816 5.55723 19.9574C5.55723 20.5332 5.97133 20.9502 6.50374 20.9502C6.77987 20.9502 6.97704 20.851 7.09534 20.6722V20.9105H7.50945V19.9574ZM5.97133 19.9574C5.97133 19.6198 6.18827 19.3419 6.54318 19.3419C6.87841 19.3419 7.11511 19.6 7.11511 19.9574C7.11511 20.295 6.87841 20.5729 6.54318 20.5729C6.18827 20.553 5.97133 20.295 5.97133 19.9574Z" fill="black"/>
<path d="M9.38281 4.52881H15.5944V15.7676H9.38281V4.52881Z" fill="#FF5F00"/>
<path d="M9.7771 10.1484C9.7771 7.86488 10.8419 5.83948 12.4786 4.52891C11.2758 3.57582 9.75743 3 8.10101 3C4.17672 3 1.00195 6.19685 1.00195 10.1484C1.00195 14.0998 4.17672 17.2967 8.10092 17.2967C9.75734 17.2967 11.2757 16.7209 12.4786 15.7677C10.8419 14.477 9.7771 12.4318 9.7771 10.1484Z" fill="#EB001B"/>
<path d="M23.9752 10.1484C23.9752 14.0998 20.8004 17.2967 16.8762 17.2967C15.2198 17.2967 13.7014 16.7209 12.4985 15.7677C14.155 14.4572 15.2001 12.4318 15.2001 10.1484C15.2001 7.86488 14.1352 5.83948 12.4985 4.52891C13.7013 3.57582 15.2198 3 16.8762 3C20.8004 3 23.9752 6.21675 23.9752 10.1484Z" fill="#F79E1B"/>
</g>
<defs>
<clipPath id="clip0_19_1465">
<rect width="23" height="18" fill="white" transform="translate(1 3)"/>
</clipPath>
</defs>
</svg>
